HIERARCHY
ROOT hip
{
	OFFSET 0.000000 0.000000 0.000000 
	CHANNELS 6 Xposition Yposition Zposition Xrotation Zrotation Yrotation
	JOINT abdomen
	{
		OFFSET 0.000000 3.402643 0.000000 
		CHANNELS 3 Xrotation Zrotation Yrotation
		JOINT chest
		{
			OFFSET 0.000000 8.438565 -0.680529 
			CHANNELS 3 Xrotation Zrotation Yrotation
			JOINT neck
			{
				OFFSET 0.000000 10.207942 -0.272212 
				CHANNELS 3 Xrotation Zrotation Yrotation
				JOINT head
				{
					OFFSET 0.000000 3.130431 0.000000 
					CHANNELS 3 Xrotation Zrotation Yrotation
					End Site
					{
						OFFSET 0.000000 3.130435 0.000000 
					}
				}
			}
			JOINT lCollar
			{
				OFFSET 3.470700 6.669187 -0.816635 
				CHANNELS 3 Yrotation Zrotation Xrotation
				JOINT lShldr
				{
					OFFSET 3.198488 0.000000 0.000000 
					CHANNELS 3 Zrotation Yrotation Xrotation
					JOINT lForeArm
					{
						OFFSET 10.139888 0.000000 0.000000 
						CHANNELS 3 Yrotation Zrotation Xrotation
						JOINT lHand
						{
							OFFSET 8.370511 0.000000 0.000000 
							CHANNELS 3 Zrotation Yrotation Xrotation
							End Site
							{
								OFFSET 4.083176 0.000000 0.000000 
							}
						}
					}
				}
			}
			JOINT rCollar
			{
				OFFSET -3.470700 6.669187 -0.816635 
				CHANNELS 3 Yrotation Zrotation Xrotation
				JOINT rShldr
				{
					OFFSET -3.198488 0.000000 0.000000 
					CHANNELS 3 Zrotation Yrotation Xrotation
					JOINT rForeArm
					{
						OFFSET -10.139888 0.000000 0.000000 
						CHANNELS 3 Yrotation Zrotation Xrotation
						JOINT rHand
						{
							OFFSET -8.370511 0.000000 0.000000 
							CHANNELS 3 Zrotation Yrotation Xrotation
							End Site
							{
								OFFSET -4.083176 0.000000 0.000000 
							}
						}
					}
				}
			}
		}
	}
	JOINT lThigh
	{
		OFFSET 5.308129 -1.633274 1.361059 
		CHANNELS 3 Xrotation Zrotation Yrotation
		JOINT lShin
		{
			OFFSET -2.041588 -20.007561 0.000000 
			CHANNELS 3 Xrotation Zrotation Yrotation
			JOINT lFoot
			{
				OFFSET 0.000000 -19.190928 -1.224953 
				CHANNELS 3 Xrotation Yrotation Zrotation
				End Site
				{
					OFFSET 0.000000 -2.449906 4.627600 
				}
			}
		}
	}
	JOINT rThigh
	{
		OFFSET -5.308129 -1.633274 1.361059 
		CHANNELS 3 Xrotation Zrotation Yrotation
		JOINT rShin
		{
			OFFSET 2.041588 -20.007561 0.000000 
			CHANNELS 3 Xrotation Zrotation Yrotation
			JOINT rFoot
			{
				OFFSET 0.000000 -19.190928 -1.224953 
				CHANNELS 3 Xrotation Yrotation Zrotation
				End Site
				{
					OFFSET 0.000000 -2.449906 4.627600 
				}
			}
		}
	}
}
MOTION
Frames: 6
Frame Time: 0.016667
5.136058 37.205971 11.648619 0.845499 6.630140 -61.972198 -16.818800 -7.772340 -2.826790 17.800600 -5.316150 -2.283710 -2.410150 21.200899 -7.030460 6.438780 12.298900 -2.217920 2.000000 -2.000000 0.000000 -65.069099 -32.145699 -166.391006 115.908997 -0.150844 0.141562 0.074857 -0.088157 -166.169998 -2.000000 2.000000 0.000000 93.446404 10.341900 -140.029007 -70.440002 0.260621 0.128833 -0.088147 0.094142 -168.649994 -23.810335 13.584555 12.461638 59.055904 1.743622 3.710781 -27.252398 6.230757 6.312137 -39.060543 2.886181 17.562195 68.167549 -0.325195 -4.360676 -28.746054 -9.699613 -4.144012 
5.283491 36.936810 11.978107 0.402770 6.230320 -66.420303 -16.820801 -8.797370 -4.737780 17.595800 -5.071380 -3.351490 -1.717230 20.310801 -4.031910 6.213390 11.764500 -0.918579 2.000000 -2.000000 0.000000 -59.165401 -38.798599 -167.464005 109.981003 -0.164794 0.147469 0.071313 -0.071698 -163.464996 -2.000000 2.000000 0.000000 90.875397 9.626280 -138.537003 -71.807198 0.257535 0.129889 -0.086283 0.091051 -167.360992 -21.451151 13.754997 14.716337 59.053009 1.798813 3.692452 -29.739693 7.058028 7.266266 -39.446198 4.262677 19.931278 68.950264 -0.291069 -4.355543 -28.702179 -8.535090 -3.305317 
5.389875 36.764370 12.334781 -0.078582 6.181630 -71.014297 -16.996201 -9.576650 -6.131320 17.538401 -4.759050 -4.153710 -1.201370 18.909300 -1.354290 6.007850 11.102700 0.257379 2.000000 -2.000000 0.000000 -50.270302 -45.253601 -171.606003 103.692001 -0.180176 0.152126 0.068523 -0.065818 -161.139999 -2.000000 2.000000 0.000000 87.046799 9.313330 -138.283005 -72.676300 0.255560 0.130521 -0.082728 0.074909 -164.753998 -19.333767 13.357545 16.927145 58.814842 1.862429 3.666205 -31.752594 8.265949 8.431033 -39.944649 5.551347 22.561117 69.265511 -0.246970 -4.386865 -28.342457 -7.308153 -2.408578 
5.446989 36.702698 12.694599 -0.491359 6.415780 -75.484299 -17.358200 -10.040900 -6.984540 17.559401 -4.437300 -4.680700 -0.572719 17.281401 0.982155 5.952200 10.410100 1.287720 2.000000 -2.000000 0.000000 140.787994 -128.820999 1.212310 95.967400 -0.199621 0.155497 0.063415 -0.053021 -156.218994 -2.000000 2.000000 0.000000 82.576401 8.935200 -139.798004 -72.910698 0.255025 0.130687 -0.080641 0.070816 -163.113007 -17.744265 12.590034 18.727243 58.332958 1.905308 3.635119 -32.904888 9.755768 9.692583 -40.569164 6.800399 24.955442 69.197990 -0.232704 -4.400423 -27.766068 -6.222987 -1.607987 
5.449886 36.757629 13.037007 -0.668654 6.718300 -79.521004 -17.795300 -10.187600 -7.486340 17.590000 -4.105840 -4.983260 0.267235 15.665800 3.094260 6.046010 9.755440 2.229930 2.000000 -2.000000 0.000000 -26.367201 -56.427601 171.093994 86.094299 -0.224162 0.136445 0.048314 -0.034166 -149.216995 -2.000000 2.000000 0.000000 78.020401 8.111000 -142.951996 -72.490799 0.255982 0.130389 -0.080932 0.071404 -163.347000 -16.670855 11.828736 19.881269 57.880531 1.954553 3.616087 -33.274563 11.281745 10.785787 -41.091480 8.035369 26.580673 68.611580 -0.233344 -4.402766 -26.901882 -5.465250 -0.962077 
5.401503 36.912994 13.346273 -0.590266 6.942990 -83.039597 -18.234900 -10.052300 -7.762570 17.571699 -3.764430 -5.136300 1.243550 14.102400 5.130300 6.239090 9.158560 3.156710 2.000000 -2.000000 0.000000 -11.568600 -60.743599 158.542007 74.619698 -0.251110 0.131870 0.046460 -0.024138 -145.574005 -2.000000 2.000000 0.000000 73.768097 6.752070 -147.173996 -71.572800 0.258066 0.129713 -0.082220 0.073939 -164.363007 -15.837163 11.273934 20.463337 57.407604 2.010291 3.581218 -33.040344 12.648458 11.580246 -41.386818 9.217332 27.234415 67.856972 -0.278970 -4.385397 -25.978720 -5.059497 -0.487818 
